<svg width="1.29em" height="1em" viewBox="0 0 36 28" fill="none" xmlns="http://www.w3.org/2000/svg">
<path d="M0.340332 5.021C0.340332 2.57023 2.32707 0.583496 4.77783 0.583496H31.4028C33.8536 0.583496 35.8403 2.57023 35.8403 5.021V22.771C35.8403 25.2218 33.8536 27.2085 31.4028 27.2085H4.77783C2.32707 27.2085 0.340332 25.2218 0.340332 22.771V5.021ZM4.77783 2.80225C3.55245 2.80225 2.55908 3.79561 2.55908 5.021V5.50225L18.0903 14.821L33.6216 5.50225V5.021C33.6216 3.79561 32.6282 2.80225 31.4028 2.80225H4.77783ZM33.6216 8.08974L23.1755 14.3574L33.6216 20.7857V8.08974ZM33.5467 23.3448L21.032 15.6435L18.0903 17.4085L15.1487 15.6435L2.634 23.3448C2.88689 24.2921 3.75088 24.9897 4.77783 24.9897H31.4028C32.4298 24.9897 33.2938 24.2921 33.5467 23.3448ZM2.55908 20.7857L13.0051 14.3574L2.55908 8.08974V20.7857Z" fill="#DE581A"/>
</svg>
