<svg width="1em" height="1em" viewBox="0 0 29 29" fill="none" xmlns="http://www.w3.org/2000/svg">
<path d="M10.1266 23.4425C10.1266 23.5583 9.99671 23.651 9.833 23.651C9.64671 23.6683 9.51688 23.5757 9.51688 23.4425C9.51688 23.3267 9.64671 23.2341 9.81042 23.2341C9.97978 23.2167 10.1266 23.3093 10.1266 23.4425ZM8.37091 23.1819C8.33139 23.2977 8.4443 23.4309 8.61365 23.4657C8.76042 23.5236 8.92978 23.4657 8.96365 23.3499C8.99752 23.2341 8.89026 23.1009 8.72091 23.0488C8.57413 23.0082 8.41042 23.0661 8.37091 23.1819ZM10.8661 23.0835C10.7024 23.124 10.5895 23.2341 10.6064 23.3672C10.6233 23.483 10.7701 23.5583 10.9395 23.5178C11.1032 23.4773 11.2161 23.3672 11.1991 23.2514C11.1822 23.1414 11.0298 23.0661 10.8661 23.0835ZM14.5806 0.894531C6.75075 0.894531 0.76123 6.99187 0.76123 15.0232C0.76123 21.4448 4.70155 26.9399 10.3298 28.8739C11.0524 29.0071 11.3064 28.5497 11.3064 28.1733C11.3064 27.8143 11.2895 25.834 11.2895 24.618C11.2895 24.618 7.33784 25.4865 6.508 22.8924C6.508 22.8924 5.86446 21.2074 4.93865 20.7731C4.93865 20.7731 3.64591 19.864 5.02897 19.8814C5.02897 19.8814 6.43462 19.9972 7.208 21.3753C8.44429 23.6104 10.5161 22.9677 11.3233 22.5855C11.4532 21.6591 11.8201 21.0163 12.2266 20.6341C9.07091 20.2751 5.88704 19.8061 5.88704 14.2357C5.88704 12.6433 6.31607 11.8443 7.2193 10.8251C7.07252 10.4488 6.59268 8.89692 7.36607 6.89343C8.54591 6.51705 11.2612 8.45685 11.2612 8.45685C12.3903 8.13258 13.604 7.96466 14.8064 7.96466C16.0088 7.96466 17.2225 8.13258 18.3516 8.45685C18.3516 8.45685 21.0669 6.51126 22.2467 6.89343C23.0201 8.90271 22.5403 10.4488 22.3935 10.8251C23.2967 11.85 23.8499 12.6491 23.8499 14.2357C23.8499 19.8235 20.5249 20.2693 17.3693 20.6341C17.8886 21.0916 18.329 21.9602 18.329 23.3209C18.329 25.2723 18.312 27.6869 18.312 28.1617C18.312 28.5381 18.5717 28.9955 19.2887 28.8624C24.9338 26.9399 28.7612 21.4448 28.7612 15.0232C28.7612 6.99187 22.4104 0.894531 14.5806 0.894531ZM6.24833 20.8658C6.17494 20.9237 6.19188 21.0568 6.28784 21.1669C6.37817 21.2595 6.508 21.3 6.58139 21.2248C6.65478 21.1669 6.63784 21.0337 6.54188 20.9237C6.45155 20.831 6.32171 20.7905 6.24833 20.8658ZM5.63865 20.3967C5.59913 20.472 5.65559 20.5647 5.76849 20.6226C5.85881 20.6805 5.97171 20.6631 6.01123 20.582C6.05075 20.5068 5.99429 20.4141 5.88139 20.3562C5.76849 20.3215 5.67817 20.3388 5.63865 20.3967ZM7.46768 22.4581C7.37736 22.5334 7.41123 22.7071 7.54107 22.8171C7.67091 22.9503 7.83462 22.9677 7.908 22.875C7.98139 22.7998 7.94752 22.6261 7.83462 22.516C7.71042 22.3829 7.54107 22.3655 7.46768 22.4581ZM6.82413 21.6069C6.73381 21.6648 6.73381 21.8154 6.82413 21.9486C6.91446 22.0818 7.06688 22.1397 7.14026 22.0818C7.23059 22.0065 7.23059 21.8559 7.14026 21.7227C7.06123 21.5896 6.91446 21.5317 6.82413 21.6069Z" fill="currentColor"/>
</svg>
