<svg width="1.0417em" height="1em" viewBox="0 0 75 72" fill="currentColor" xmlns="http://www.w3.org/2000/svg">
<path d="M24.8611 0.402344H26.6141V0.75177H25.2046V9.27999H26.6082V9.61757H24.8611V0.402344Z"/>
<path fill-rule="evenodd" clip-rule="evenodd" d="M50.3585 15.6825C38.8712 15.6825 35.0683 24.2685 35.0683 29.2869C35.0683 33.6794 37.5976 38.479 41.4878 41.5612C36.2204 42.3514 33.4631 46.16 33.4631 49.0214C33.4631 51.1004 35.0832 52.9328 37.3877 53.9653V56.8105C33.5708 58.2916 31.8599 61.9512 31.8599 64.682C31.8599 68.1854 35.1353 71.5977 41.1412 71.5977H62.3532C67.0694 71.5977 73.3485 68.1962 73.3485 60.6055C73.3485 53.266 66.9857 49.6102 62.3532 49.6102H44.0318C40.8864 49.6102 40.0266 48.4552 40.0266 47.1342C40.0266 46.1681 40.9798 44.159 43.9033 43.1491C45.8626 44.1943 48.0493 44.8123 50.3585 44.8123C58.8269 44.8123 66.6681 39.4803 66.6681 29.2869C66.6681 23.9941 68.6052 22.9733 71.3831 22.9733H74.9411V16.7674H71.3831C67.7187 16.7674 66.2056 21.5075 66.2056 23.3989H63.4514C62.7121 20.8267 59.0585 15.6825 50.3585 15.6825ZM50.8772 21.5708C57.3629 21.5708 59.4987 26.6518 59.4987 30.4277C59.4987 33.8176 57.3661 38.9097 50.8772 38.9097C44.6467 38.9097 42.4915 33.9794 42.4915 30.4277C42.4915 26.6226 44.4927 21.5708 50.8772 21.5708ZM41.3972 56.193H60.6572C64.3602 56.193 65.7312 58.255 65.7312 60.6085C65.7312 62.962 64.6084 65.2723 59.8366 65.2723H44.292C40.1121 65.2723 38.5098 63.83 38.5098 61.4004C38.5098 58.9708 39.7131 57.2815 41.3972 56.193Z"/>
<path d="M0.209961 56.1469V16.7918H7.4098C7.4098 19.2214 6.01134 23.7235 3.23057 28.0211L7.63311 28.0256C8.4966 23.4305 11.7482 16.1633 20.3781 16.1633C22.6567 16.1633 23.9326 16.4412 24.2857 16.5801V24.3085C23.6315 24.1699 21.8374 23.8927 19.8944 23.8927C12.9413 23.8927 7.66422 27.262 7.66422 38.4164V56.1469H0.209961Z"/>
<path d="M25.2682 56.1469V16.7844H32.7959V56.1469H25.2682Z"/>
<path d="M31.4476 0.402344V0.75177H32.7897V9.27999H31.3321V9.61757H33.1216V0.402344H31.4476Z"/>
</svg>
