<svg width="1.1454248366em" height="1em" viewBox="0 0 701 612" fill="currentColor" xmlns="http://www.w3.org/2000/svg">
<path d="M61.9069 224.854H44.9069C45.6069 187.454 68.4068 147.754 69.0068 122.354H0.506836V479.454H68.4069V320.954C68.4069 291.554 72.4068 267.054 80.3068 247.354C88.2068 227.654 100.407 212.554 117.107 202.554C147.907 184.154 204.407 187.154 219.307 186.654V122.354C160.007 122.354 131.207 129.154 107.707 145.454C89.4068 158.254 71.0069 190.754 61.9069 224.854Z"/>
<path d="M686.107 459.055C676.507 443.955 663.007 432.155 645.707 423.655C628.407 415.255 608.207 411.055 585.107 411.055H444.407C432.907 411.055 424.707 408.855 419.907 404.555C415.107 400.255 413.207 392.155 413.807 385.355C414.707 374.955 421.707 362.855 431.807 357.255C451.607 364.755 469.507 367.755 497.807 367.755C526.107 367.755 547.807 362.355 568.507 351.555C589.207 340.755 605.807 325.355 618.307 305.355C630.807 285.355 638.007 261.955 639.907 235.055L641.307 217.755C642.307 204.255 644.307 194.055 647.407 187.055C650.507 180.055 655.107 175.355 661.107 172.955C667.107 170.555 675.407 169.355 686.007 169.355H700.207V113.055H683.807C637.707 113.055 630.407 155.155 629.007 172.955H611.007C603.307 154.155 589.807 137.855 570.607 123.855C551.407 109.955 524.707 102.955 490.507 102.955C456.307 102.955 440.407 108.655 419.407 119.955C398.507 131.255 382.207 146.555 370.707 165.755C359.207 184.955 353.507 205.955 353.407 228.555C353.007 298.555 381.407 319.255 388.507 327.655L388.707 354.855C380.607 357.355 373.207 363.055 367.107 370.355C358.007 381.155 353.407 393.355 353.407 406.755C353.407 420.155 356.807 426.455 363.507 434.155C370.207 441.855 378.707 447.355 388.807 450.755V476.755C372.907 483.955 349.507 501.155 353.407 546.755C354.907 564.055 360.407 579.255 374.307 592.255C388.207 605.255 406.007 611.755 435.807 611.755H586.507C619.207 611.755 646.407 603.055 668.007 585.755C689.607 568.455 700.507 543.655 700.507 511.455C700.507 479.255 695.707 474.255 686.107 459.155V459.055ZM429.907 194.655C436.107 182.655 445.207 173.255 457.007 166.555C468.807 159.855 482.407 156.455 497.807 156.455C513.207 156.455 526.807 159.855 538.607 166.555C550.407 173.255 559.407 182.655 565.707 194.655C571.907 206.655 575.107 220.355 575.107 235.755C575.107 259.855 568.107 278.955 554.207 293.155C540.207 307.355 521.507 314.455 497.907 314.455C474.307 314.455 455.607 307.355 441.607 293.155C427.607 278.955 420.707 259.855 420.707 235.755C420.707 211.655 423.807 206.655 430.107 194.655H429.907ZM617.207 544.855C607.307 550.855 594.207 553.855 577.907 553.855H453.007C434.707 553.855 421.107 551.055 412.207 545.555C403.307 540.055 398.907 530.255 398.907 516.355C398.907 502.455 401.507 497.255 406.807 489.255C412.107 481.355 418.107 475.155 424.807 470.855H577.807C594.607 470.855 607.907 473.855 617.507 479.855C627.107 485.855 631.907 496.555 631.907 511.955C631.907 527.355 627.007 538.755 617.107 544.755L617.207 544.855Z"/>
<path d="M259.807 87.0545L232.907 86.9545V0.354492H259.807V8.35451H240.907V79.0545H259.807V87.0545Z"/>
<path d="M326.407 87.1544H300.407V79.1544H318.407V8.55444L300.407 8.65445V0.654449L326.407 0.554443V87.1544Z"/>
<path d="M315.207 120.354H246.307V478.954H315.207V120.354Z"/>
</svg>
