<svg width="1029" height="852" viewBox="0 0 1029 852" fill="none" xmlns="http://www.w3.org/2000/svg">
<path d="M236.7 339.8H237.468L237.666 339.058C242.195 322.088 249.037 305.519 257.017 291.61C265.007 277.684 274.093 266.501 283.071 260.221C306.181 244.191 334.533 237.377 393.1 237.3V299.627C391.14 299.67 388.592 299.671 385.577 299.672C376.494 299.675 363.17 299.679 348.882 300.841C329.018 302.455 306.996 306.317 291.387 315.641L291.386 315.642C274.475 325.769 262.142 341.053 254.172 360.928C246.21 380.781 242.2 405.416 242.2 434.9V592.4H176.3V237.3H242.764C242.487 243.278 241.022 250.073 238.918 257.499C237.14 263.773 234.92 270.447 232.601 277.421C232.018 279.174 231.428 280.947 230.838 282.737C224.978 300.503 219.053 319.911 218.7 338.781L218.681 339.8H219.7H236.7Z" fill="#231F20" stroke="white" stroke-width="2"/>
<path d="M858.6 228H874V282.3H860.8C850.144 282.3 841.698 283.504 835.529 285.972C829.246 288.485 824.472 293.4 821.286 300.595C818.116 307.752 816.106 318.087 815.103 331.622C815.103 331.624 815.103 331.625 815.103 331.627L813.703 348.92L813.702 348.93C811.812 375.69 804.654 398.928 792.252 418.77C779.845 438.621 763.378 453.897 742.838 464.614C722.293 475.333 700.754 480.7 672.6 480.7C644.39 480.7 626.615 477.713 606.954 470.265L606.521 470.101L606.115 470.326C595.699 476.101 588.53 488.512 587.604 499.214C586.99 506.18 588.907 514.653 594.033 519.245C599.112 523.796 607.624 526 619.2 526H759.9C782.878 526 802.923 530.178 820.062 538.499C837.116 546.879 850.417 558.478 859.9 573.292V573.391L860.056 573.637C860.742 574.716 861.402 575.741 862.036 576.726C865.864 582.675 868.735 587.135 870.752 593.156C873.1 600.164 874.3 609.335 874.3 625.4C874.3 657.35 863.499 681.841 842.175 698.92C820.783 716.054 793.815 724.7 761.3 724.7H610.6C580.963 724.7 563.441 718.243 549.783 705.47C536.105 692.678 530.681 677.732 529.196 660.614C527.263 638.005 532.101 622.541 539.304 611.859C546.516 601.164 556.164 595.165 564.013 591.611L564.6 591.345V590.7V564.7V563.982L563.919 563.753C553.973 560.405 545.628 554.999 539.054 547.444C535.736 543.631 533.293 540.229 531.666 536.166C530.039 532.105 529.2 527.315 529.2 520.7C529.2 507.55 533.707 495.575 542.665 484.945L542.667 484.942C548.686 477.739 555.934 472.182 563.795 469.756L564.505 469.537L564.5 468.793L564.3 441.593L564.297 441.231L564.064 440.955C563.25 439.992 562.188 438.894 560.942 437.605C556.574 433.089 549.944 426.235 543.821 414.682C535.971 399.873 529.001 377.365 529.2 342.506L529.2 342.505C529.299 320.078 534.953 299.255 546.358 280.214C557.759 261.179 573.923 246.001 594.676 234.78C605.143 229.148 614.288 224.939 625.052 222.13C635.82 219.321 648.255 217.9 665.3 217.9C699.376 217.9 725.842 224.877 744.812 238.609C763.89 252.521 777.257 268.681 784.875 287.279L785.129 287.9H785.8H803.8H804.725L804.797 286.979C805.493 278.127 807.653 263.342 815.292 250.795C822.888 238.318 835.928 228 858.6 228ZM603.812 308.141L603.058 309.6H603.244C600.482 314.846 598.336 318.953 596.872 324.351C595.276 330.24 594.5 337.618 594.5 349.7C594.5 374.002 601.464 393.376 615.688 407.802C629.909 422.227 648.884 429.4 672.7 429.4C696.516 429.4 715.491 422.227 729.712 407.802L729.715 407.8C743.834 393.376 750.9 374.005 750.9 349.7C750.9 334.158 747.669 320.298 741.388 308.141L741.385 308.136C734.998 295.969 725.863 286.427 713.894 279.631C701.926 272.835 688.152 269.4 672.6 269.4C657.048 269.4 643.274 272.835 631.306 279.631C619.34 286.425 610.102 295.967 603.812 308.141ZM792.518 659.656L793.608 658.995L793.488 658.875C803.074 652.47 807.7 640.946 807.7 625.9C807.7 610.294 802.823 599.198 792.83 592.952C783.011 586.816 769.501 583.8 752.6 583.8H599.6H599.307L599.06 583.959C592.22 588.348 586.128 594.656 580.77 602.643L580.766 602.648C578.106 606.663 576.068 610.056 574.712 614.229C573.355 618.402 572.7 623.291 572.7 630.3C572.7 644.412 577.18 654.608 586.474 660.351C595.609 665.996 609.433 668.8 627.8 668.8H752.7C769.112 668.8 782.411 665.781 792.518 659.656Z" fill="#231F20" stroke="white" stroke-width="2"/>
<path d="M408.7 199.904V115.3H433.6V121.3H415.7H414.7V122.3V193V194H415.7H433.6V199.996L408.7 199.904Z" fill="#231F20" stroke="white" stroke-width="2"/>
<path d="M476.2 115.596L500.2 115.504V200.1H476.2V194.1H493.2H494.2V193.1V122.5V121.494L493.194 121.5L476.2 121.594V115.596Z" fill="#231F20" stroke="white" stroke-width="2"/>
<path d="M422.1 235.3H489V591.9H422.1V235.3Z" fill="#231F20" stroke="white" stroke-width="2"/>
</svg>
